<svg xmlns="http://www.w3.org/2000/svg" xmlns:xlink="http://www.w3.org/1999/xlink" width="500" zoomAndPan="magnify" viewBox="0 0 375 374.999991" height="500" preserveAspectRatio="xMidYMid meet" version="1.0"><defs><clipPath id="ca4a3ab34a"><path d="M 86.589844 37.5 L 288.339844 37.5 L 288.339844 337.5 L 86.589844 337.5 Z M 86.589844 37.5 " clip-rule="nonzero"/></clipPath><clipPath id="147f242e86"><path d="M 0.648438 0.5 L 202.339844 0.5 L 202.339844 300.441406 L 0.648438 300.441406 Z M 0.648438 0.5 " clip-rule="nonzero"/></clipPath><clipPath id="9b75a9cafd"><rect x="0" width="203" y="0" height="301"/></clipPath></defs><g clip-path="url(#ca4a3ab34a)"><g transform="matrix(1, 0, 0, 1, 86, 37)"><g clip-path="url(#9b75a9cafd)"><path fill="#344e41" d="M 17.21875 287.617188 C 13.871094 287.617188 11.191406 290.359375 11.191406 293.648438 C 11.191406 297 13.871094 299.679688 17.21875 299.679688 C 20.570312 299.679688 23.25 296.9375 23.25 293.648438 C 23.25 290.359375 20.511719 287.617188 17.21875 287.617188 Z M 1.199219 115.777344 L 1.199219 235.171875 C 1.199219 239.554688 4.792969 243.152344 9.179688 243.152344 L 38.84375 243.152344 L 38.84375 278.296875 L 24.46875 278.296875 C 20.449219 278.296875 17.21875 281.527344 17.21875 285.546875 L 17.21875 287.617188 L 83.007812 287.617188 L 83.007812 285.546875 C 83.007812 281.527344 79.777344 278.296875 75.757812 278.296875 L 61.382812 278.296875 L 61.382812 243.089844 L 86.84375 243.089844 L 86.84375 289.019531 C 85.808594 288.164062 84.46875 287.617188 83.007812 287.617188 C 79.65625 287.617188 76.976562 290.359375 76.976562 293.648438 C 76.976562 297 79.71875 299.679688 83.007812 299.679688 C 85.445312 299.679688 87.515625 298.277344 88.488281 296.207031 C 88.671875 296.449219 88.855469 296.695312 89.097656 296.9375 C 89.769531 297.667969 90.5 298.21875 91.351562 298.703125 C 91.351562 298.703125 91.414062 298.703125 91.414062 298.765625 C 91.65625 298.886719 91.902344 299.007812 92.144531 299.070312 C 92.207031 299.128906 92.328125 299.128906 92.386719 299.128906 C 92.570312 299.191406 92.816406 299.253906 92.996094 299.3125 C 93.121094 299.3125 93.179688 299.375 93.300781 299.375 C 93.546875 299.433594 93.730469 299.433594 93.972656 299.496094 C 94.09375 299.496094 94.15625 299.558594 94.277344 299.558594 C 94.582031 299.617188 94.886719 299.617188 95.25 299.617188 L 139.535156 299.617188 C 141.300781 299.617188 142.949219 299.070312 144.347656 298.09375 C 145.6875 299.070312 147.394531 299.617188 149.160156 299.617188 L 193.445312 299.617188 C 198.074219 299.738281 201.789062 296.023438 201.789062 291.394531 L 201.789062 286.644531 C 201.789062 282.011719 198.074219 278.296875 193.445312 278.296875 L 173.28125 278.296875 C 166.339844 253.75 159.394531 229.199219 152.449219 204.714844 C 151.960938 203.191406 150.5625 199.476562 146.785156 196.550781 C 141.910156 192.714844 136.429688 192.894531 135.089844 193.019531 L 104.816406 193.019531 L 98.539062 192.957031 C 99.273438 187.78125 100.003906 182.539062 100.734375 177.363281 L 117.730469 169.382812 L 131.25 164.207031 C 131.25 164.207031 139.597656 161.585938 137.769531 156.957031 C 136.125 152.691406 131.191406 154.582031 131.191406 154.582031 C 134.84375 152.875 138.746094 153.726562 141.667969 154.945312 C 143.859375 155.859375 145.628906 156.894531 146.722656 157.871094 C 146.785156 157.929688 148.613281 159.515625 150.867188 158.722656 C 152.816406 158.054688 153.484375 156.164062 153.546875 155.980469 C 153.667969 155.433594 153.910156 153.726562 153.058594 151.902344 C 152.085938 149.828125 150.378906 148.917969 149.890625 148.734375 C 149.890625 148.734375 146.785156 147.027344 139.351562 144.285156 C 135.394531 142.824219 130.886719 142.945312 127.535156 143.371094 C 125.890625 142.519531 123.332031 141.242188 119.679688 139.71875 C 115.046875 137.707031 109.566406 137.890625 106.09375 138.257812 C 107.007812 131.496094 107.984375 124.734375 108.894531 117.972656 C 109.382812 115.167969 110.113281 108.773438 107.433594 101.464844 C 104.996094 94.824219 100.917969 90.683594 98.664062 88.734375 L 127.414062 88.734375 C 135.820312 88.734375 136.125 80.632812 136.125 80.632812 C 136.246094 79.839844 136.246094 78.988281 136.125 78.132812 L 122.664062 8.449219 C 121.992188 4.488281 118.15625 1.261719 114.195312 1.261719 L 44.511719 1.261719 C 44.328125 1.261719 44.144531 1.261719 43.960938 1.261719 C 32.996094 1.261719 35.859375 11.859375 35.859375 11.859375 L 36.714844 16.183594 L 49.320312 81.421875 C 47.070312 82.277344 43.292969 83.980469 39.878906 87.636719 C 35.738281 92.023438 34.335938 96.773438 33.851562 98.90625 L 32.996094 102.683594 L 14.359375 102.683594 C 7.046875 102.683594 1.199219 108.589844 1.199219 115.777344 Z M 122.054688 278.296875 L 122.054688 228.957031 C 123.394531 229.566406 124.492188 230.722656 124.917969 232.246094 L 138.257812 278.296875 Z M 122.054688 278.296875 " fill-opacity="1" fill-rule="nonzero"/><path fill="#272727" d="M 76.976562 293.710938 C 76.976562 297.058594 79.71875 299.738281 83.007812 299.738281 C 86.359375 299.738281 89.039062 297 89.039062 293.710938 C 89.039062 290.359375 86.296875 287.679688 83.007812 287.679688 C 79.65625 287.617188 76.976562 290.359375 76.976562 293.710938 Z M 17.21875 287.617188 C 20.570312 287.617188 23.25 290.359375 23.25 293.648438 C 23.25 297 20.570312 299.679688 17.21875 299.679688 C 13.871094 299.679688 11.191406 296.9375 11.191406 293.648438 C 11.128906 290.359375 13.871094 287.617188 17.21875 287.617188 Z M 12.285156 192.957031 L 33.789062 98.90625 C 34.277344 96.710938 35.738281 92.023438 39.820312 87.636719 C 43.230469 83.980469 47.007812 82.277344 49.261719 81.421875 L 98.480469 88.488281 C 100.613281 90.378906 104.9375 94.582031 107.433594 101.464844 C 110.113281 108.773438 109.382812 115.167969 108.894531 117.972656 C 107.375 128.816406 105.851562 139.65625 104.386719 150.5 L 109.382812 149.585938 L 117.730469 169.382812 L 100.734375 177.300781 C 100.003906 182.480469 99.273438 187.71875 98.539062 192.894531 Z M 12.285156 192.957031 " fill-opacity="1" fill-rule="nonzero"/><path fill="#fefae0" d="M 12.285156 192.957031 C 12.285156 212.570312 28.183594 228.46875 47.800781 228.46875 L 86.84375 228.46875 L 86.84375 281.527344 L 122.054688 281.527344 L 122.054688 228.898438 C 123.394531 229.503906 124.492188 230.664062 124.917969 232.1875 L 140.9375 287.617188 L 173.28125 278.296875 C 166.339844 253.75 159.394531 229.199219 152.449219 204.714844 C 151.960938 203.191406 150.5625 199.476562 146.785156 196.550781 C 141.910156 192.714844 136.429688 192.894531 135.089844 193.019531 L 12.285156 193.019531 Z M 136.246094 80.570312 C 136.246094 80.570312 136.003906 88.671875 127.535156 88.671875 L 57.851562 88.671875 C 53.890625 88.671875 50.054688 85.445312 49.320312 81.546875 L 36.714844 16.246094 L 35.859375 11.921875 C 35.859375 11.921875 32.996094 1.320312 43.960938 1.320312 C 44.144531 1.320312 44.328125 1.320312 44.511719 1.320312 L 114.195312 1.320312 C 118.15625 1.320312 121.992188 4.550781 122.722656 8.449219 L 136.1875 78.132812 C 136.429688 78.988281 136.367188 79.839844 136.246094 80.570312 Z M 136.246094 80.570312 " fill-opacity="1" fill-rule="nonzero"/><path fill="#545454" d="M 38.84375 243.089844 L 38.84375 278.238281 L 61.382812 278.238281 L 61.382812 243.089844 Z M 114.5 8.933594 C 113.222656 8.933594 112.0625 7.898438 111.820312 6.683594 C 111.578125 5.402344 112.367188 4.429688 113.648438 4.429688 C 114.925781 4.429688 116.085938 5.464844 116.328125 6.683594 C 116.570312 7.898438 115.71875 8.933594 114.5 8.933594 Z M 107.554688 8.933594 C 106.277344 8.933594 105.121094 7.898438 104.875 6.683594 C 104.632812 5.402344 105.425781 4.429688 106.703125 4.429688 C 107.984375 4.429688 109.140625 5.464844 109.382812 6.683594 C 109.628906 7.898438 108.835938 8.933594 107.554688 8.933594 Z M 100.671875 8.933594 C 99.394531 8.933594 98.234375 7.898438 97.992188 6.683594 C 97.75 5.402344 98.539062 4.429688 99.820312 4.429688 C 101.097656 4.429688 102.257812 5.464844 102.5 6.683594 C 102.742188 7.898438 101.953125 8.933594 100.671875 8.933594 Z M 59.738281 46.398438 L 75.332031 39.269531 L 76.488281 45.117188 L 65.890625 48.957031 L 65.890625 49.015625 L 77.953125 52.855469 L 79.109375 58.703125 L 60.773438 51.574219 Z M 92.9375 32.691406 L 89.527344 60.710938 L 83.375 60.710938 L 86.785156 32.691406 Z M 100.792969 52.792969 L 111.394531 48.957031 L 111.394531 48.894531 L 99.332031 45.058594 L 98.175781 39.210938 L 116.511719 46.398438 L 117.484375 51.515625 L 101.890625 58.640625 Z M 119.738281 139.71875 C 123.394531 141.300781 125.953125 142.519531 127.597656 143.371094 C 130.945312 142.945312 135.453125 142.886719 139.414062 144.285156 C 146.847656 147.027344 149.953125 148.734375 149.953125 148.734375 C 150.441406 148.976562 152.144531 149.828125 153.121094 151.902344 C 153.972656 153.726562 153.730469 155.375 153.605469 155.980469 C 153.546875 156.164062 152.9375 158.054688 150.925781 158.722656 C 148.671875 159.453125 146.847656 157.929688 146.785156 157.871094 C 145.628906 156.957031 143.921875 155.859375 141.730469 154.945312 C 138.746094 153.726562 134.84375 152.875 131.25 154.582031 C 131.25 154.582031 136.125 152.691406 137.832031 156.957031 C 139.65625 161.648438 131.3125 164.207031 131.3125 164.207031 L 117.730469 169.382812 L 113.097656 158.175781 C 111.699219 158.785156 110.539062 159.089844 110.539062 159.089844 L 96.714844 163.476562 L 89.585938 143.191406 L 102.925781 138.683594 C 102.925781 138.742188 112.488281 136.550781 119.738281 139.71875 Z M 119.738281 139.71875 " fill-opacity="1" fill-rule="nonzero"/><g clip-path="url(#147f242e86)"><path fill="#231f20" d="M 14.296875 102.074219 L 32.449219 102.074219 L 33.179688 98.785156 C 33.910156 95.738281 35.554688 91.292969 39.394531 87.210938 C 42.5625 83.859375 46.09375 82.03125 48.589844 80.996094 L 35.25 11.980469 C 35.191406 11.796875 33.910156 6.925781 36.46875 3.574219 C 38.054688 1.6875 40.550781 0.652344 44.023438 0.652344 C 44.207031 0.652344 44.386719 0.652344 44.570312 0.652344 L 114.195312 0.652344 C 118.398438 0.652344 122.542969 4.0625 123.332031 8.328125 L 124.0625 11.980469 L 136.855469 78.011719 C 137.039062 78.925781 137.039062 79.839844 136.917969 80.632812 C 136.917969 80.691406 136.492188 89.34375 127.597656 89.34375 L 100.367188 89.34375 C 102.925781 91.839844 106.09375 95.800781 108.164062 101.28125 C 110.664062 108.042969 110.359375 114.195312 109.6875 118.09375 L 106.945312 137.585938 C 110.480469 137.28125 115.597656 137.28125 120.042969 139.171875 C 123.578125 140.691406 126.136719 141.910156 127.78125 142.765625 C 131.007812 142.398438 135.636719 142.277344 139.65625 143.738281 C 147.089844 146.417969 150.136719 148.125 150.257812 148.183594 C 151.171875 148.613281 152.753906 149.648438 153.730469 151.65625 C 154.582031 153.484375 154.398438 155.25 154.214844 156.105469 C 154.214844 156.105469 154.214844 156.164062 154.214844 156.164062 C 154.15625 156.410156 153.425781 158.539062 151.171875 159.273438 C 148.550781 160.125 146.542969 158.359375 146.480469 158.296875 C 145.261719 157.324219 143.554688 156.285156 141.546875 155.496094 C 139.71875 154.765625 138.011719 154.335938 136.367188 154.214844 C 137.222656 154.703125 137.953125 155.496094 138.378906 156.714844 C 138.804688 157.871094 138.804688 158.96875 138.257812 160.003906 C 136.796875 163.109375 131.679688 164.691406 131.496094 164.753906 L 117.972656 169.929688 L 101.28125 177.730469 L 99.273438 192.347656 L 135.089844 192.347656 C 137.160156 192.226562 142.460938 192.285156 147.210938 196.003906 C 150.867188 198.867188 152.449219 202.519531 153.058594 204.46875 L 173.769531 277.6875 L 193.445312 277.6875 C 198.378906 277.6875 202.398438 281.710938 202.398438 286.644531 L 202.398438 291.394531 C 202.398438 296.328125 198.378906 300.347656 193.445312 300.347656 L 149.160156 300.347656 C 147.394531 300.347656 145.75 299.800781 144.347656 298.949219 C 142.886719 299.863281 141.242188 300.347656 139.535156 300.347656 L 95.25 300.347656 C 92.691406 300.347656 90.257812 299.253906 88.550781 297.363281 C 87.332031 299.191406 85.324219 300.347656 83.007812 300.347656 C 79.351562 300.347656 76.367188 297.363281 76.367188 293.710938 C 76.367188 291.457031 77.464844 289.445312 79.230469 288.289062 L 21.058594 288.289062 C 22.761719 289.507812 23.921875 291.457031 23.921875 293.710938 C 23.921875 297.363281 20.9375 300.347656 17.28125 300.347656 C 13.625 300.347656 10.640625 297.363281 10.640625 293.710938 C 10.640625 290.238281 13.320312 287.375 16.671875 287.070312 L 16.671875 285.546875 C 16.671875 281.222656 20.207031 277.6875 24.53125 277.6875 L 38.296875 277.6875 L 38.296875 243.699219 L 9.242188 243.699219 C 4.488281 243.699219 0.652344 239.859375 0.652344 235.109375 L 0.652344 115.777344 C 0.589844 108.226562 6.742188 102.074219 14.296875 102.074219 Z M 122.175781 8.507812 C 121.445312 4.855469 117.910156 1.871094 114.257812 1.871094 L 44.570312 1.871094 C 42.867188 1.871094 41.402344 2.539062 40.429688 3.695312 C 39.453125 4.914062 39.089844 6.558594 39.394531 8.328125 L 40.003906 11.492188 L 122.722656 11.492188 Z M 135.636719 78.195312 L 122.96875 12.652344 L 40.246094 12.652344 L 52.855469 77.953125 C 53.585938 81.605469 57.121094 84.589844 60.773438 84.589844 L 130.460938 84.589844 C 132.164062 84.589844 133.628906 83.921875 134.601562 82.761719 C 135.578125 81.605469 135.941406 79.960938 135.636719 78.195312 Z M 127.597656 88.125 C 131.3125 88.125 133.324219 86.480469 134.417969 84.710938 C 133.324219 85.503906 131.984375 85.929688 130.519531 85.929688 L 60.835938 85.929688 C 56.632812 85.929688 52.488281 82.519531 51.699219 78.253906 L 38.234375 8.570312 C 37.808594 6.4375 38.296875 4.488281 39.515625 2.964844 C 39.574219 2.90625 39.636719 2.84375 39.699219 2.78125 C 38.84375 3.210938 38.113281 3.757812 37.566406 4.429688 C 35.371094 7.289062 36.53125 11.738281 36.53125 11.796875 L 49.992188 81.484375 C 50.722656 85.140625 54.257812 88.125 57.910156 88.125 Z M 119.496094 140.265625 C 112.488281 137.21875 103.109375 139.351562 103.109375 139.351562 L 90.378906 143.675781 L 97.078125 162.804688 L 102.804688 160.976562 L 110.359375 158.601562 C 110.417969 158.601562 115.230469 157.382812 116.632812 154.824219 C 117.058594 154.09375 117.121094 153.300781 116.816406 152.511719 C 116.085938 150.378906 114.378906 149.890625 113.039062 149.890625 C 112.0625 149.890625 111.273438 150.132812 111.148438 150.132812 C 110.84375 150.257812 110.480469 150.074219 110.417969 149.769531 C 110.359375 149.464844 110.480469 149.097656 110.785156 148.976562 C 114.011719 147.699219 117.789062 148.003906 121.75 149.953125 C 123.757812 150.925781 125.527344 152.082031 126.804688 153.242188 C 126.804688 153.242188 128.328125 154.703125 130.277344 154.214844 C 131.921875 153.789062 132.59375 152.328125 132.652344 152.023438 C 132.835938 151.292969 133.019531 149.890625 132.410156 148.367188 C 131.679688 146.539062 130.277344 145.625 129.667969 145.261719 C 129.667969 145.199219 126.683594 143.3125 119.496094 140.265625 Z M 141.972656 154.398438 C 144.042969 155.25 145.871094 156.347656 147.210938 157.382812 C 147.210938 157.382812 148.855469 158.785156 150.746094 158.113281 C 152.328125 157.566406 152.9375 156.105469 153 155.800781 C 153.121094 155.070312 153.242188 153.667969 152.570312 152.144531 C 151.78125 150.378906 150.316406 149.523438 149.648438 149.222656 C 149.585938 149.222656 146.480469 147.515625 139.230469 144.835938 C 136.0625 143.675781 132.53125 143.554688 129.667969 143.738281 C 130.09375 143.980469 130.277344 144.105469 130.339844 144.105469 C 131.191406 144.589844 132.773438 145.6875 133.566406 147.757812 C 134.296875 149.648438 134.054688 151.351562 133.808594 152.207031 C 133.808594 152.207031 133.808594 152.265625 133.808594 152.265625 C 133.75 152.386719 133.628906 152.753906 133.324219 153.179688 C 135.941406 152.753906 138.867188 153.121094 141.972656 154.398438 Z M 118.09375 168.652344 L 131.128906 163.65625 C 131.191406 163.65625 135.941406 162.132812 137.160156 159.515625 C 137.527344 158.785156 137.527344 157.992188 137.222656 157.199219 C 135.820312 153.546875 131.617188 155.128906 131.433594 155.191406 C 131.3125 155.25 131.191406 155.25 131.070312 155.191406 C 130.886719 155.25 130.765625 155.3125 130.582031 155.375 C 127.960938 156.105469 126.011719 154.214844 125.953125 154.15625 C 124.792969 153.121094 123.148438 152.023438 121.199219 151.046875 C 119.800781 150.378906 118.035156 149.707031 116.144531 149.523438 C 116.9375 150.074219 117.605469 150.867188 118.035156 152.144531 C 118.398438 153.300781 118.339844 154.398438 117.730469 155.433594 C 116.9375 156.835938 115.351562 157.871094 113.953125 158.601562 Z M 116.996094 169.078125 L 112.792969 158.96875 C 111.699219 159.394531 110.785156 159.636719 110.722656 159.636719 L 103.535156 161.953125 L 101.527344 176.265625 Z M 102.195312 162.378906 L 96.894531 164.082031 L 61.140625 177.667969 C 61.140625 177.667969 61.078125 177.667969 61.078125 177.667969 C 59.070312 178.15625 56.996094 178.398438 54.988281 178.398438 C 48.226562 178.398438 41.707031 175.71875 37.140625 170.785156 C 30.257812 163.414062 30.621094 154.214844 30.925781 151.535156 L 30.925781 134.664062 C 30.925781 134.296875 31.167969 134.054688 31.535156 134.054688 C 31.902344 134.054688 32.144531 134.296875 32.144531 134.664062 L 32.144531 151.597656 C 32.144531 151.597656 32.144531 151.65625 32.144531 151.65625 C 31.839844 154.15625 31.472656 162.925781 38.054688 169.992188 C 43.65625 176.023438 52.367188 178.519531 60.773438 176.511719 L 95.984375 163.171875 L 89.28125 144.042969 L 61.140625 154.09375 C 60.957031 154.15625 60.773438 154.15625 60.589844 154.03125 C 60.410156 153.910156 60.347656 153.726562 60.347656 153.546875 L 60.347656 129.546875 C 60.347656 129.179688 60.589844 128.9375 60.957031 128.9375 C 61.324219 128.9375 61.566406 129.179688 61.566406 129.546875 L 61.566406 152.691406 L 89.464844 142.765625 L 102.867188 138.257812 C 102.988281 138.257812 104.085938 138.011719 105.730469 137.769531 L 108.46875 117.972656 C 109.140625 114.195312 109.445312 108.285156 107.007812 101.769531 C 104.816406 95.859375 101.222656 91.777344 98.601562 89.464844 L 57.910156 89.464844 C 53.890625 89.464844 49.992188 86.355469 48.894531 82.398438 C 46.519531 83.371094 43.230469 85.078125 40.308594 88.183594 C 36.652344 92.082031 35.066406 96.285156 34.398438 99.210938 L 13.078125 192.46875 L 98.054688 192.410156 Z M 151.902344 204.835938 C 151.351562 203.070312 149.832031 199.65625 146.480469 196.976562 C 142.035156 193.503906 137.097656 193.445312 135.148438 193.566406 L 12.894531 193.566406 C 13.199219 212.511719 28.734375 227.859375 47.800781 227.859375 L 119.984375 227.859375 C 120.773438 227.859375 121.566406 228.042969 122.296875 228.347656 C 122.296875 228.347656 122.359375 228.347656 122.359375 228.347656 C 123.882812 229.019531 125.039062 230.359375 125.527344 232.003906 L 141.363281 286.824219 L 172.550781 277.871094 Z M 86.234375 243.699219 L 61.992188 243.699219 L 61.992188 277.628906 L 75.757812 277.628906 C 80.082031 277.628906 83.617188 281.160156 83.617188 285.484375 L 83.617188 287.007812 C 84.589844 287.070312 85.445312 287.375 86.234375 287.863281 Z M 87.453125 229.078125 L 87.453125 280.917969 L 121.445312 280.917969 L 121.445312 229.324219 C 120.957031 229.140625 120.46875 229.078125 119.984375 229.078125 Z M 122.664062 229.992188 L 122.664062 277.6875 L 137.402344 277.6875 L 124.308594 232.367188 C 124.0625 231.394531 123.453125 230.601562 122.664062 229.992188 Z M 144.53125 297.546875 C 144.714844 297.546875 144.835938 297.667969 144.957031 297.789062 C 144.957031 297.789062 144.957031 297.851562 144.957031 297.851562 C 146.175781 298.644531 147.636719 299.128906 149.160156 299.128906 L 193.445312 299.128906 C 197.710938 299.128906 201.179688 295.660156 201.179688 291.394531 L 201.179688 286.644531 C 201.179688 282.378906 197.710938 278.90625 193.445312 278.90625 L 173.40625 278.90625 L 141.425781 288.164062 L 141.425781 291.394531 C 141.363281 293.890625 142.644531 296.144531 144.53125 297.546875 Z M 89.160156 296.207031 C 90.621094 298.035156 92.875 299.128906 95.25 299.128906 L 139.535156 299.128906 C 140.875 299.128906 142.15625 298.765625 143.25 298.15625 C 141.363281 296.511719 140.144531 294.074219 140.144531 291.394531 L 140.144531 287.679688 C 140.144531 287.558594 140.144531 287.496094 140.207031 287.433594 L 137.769531 278.96875 L 122.664062 278.96875 L 122.664062 281.648438 C 122.664062 282.011719 122.417969 282.257812 122.054688 282.257812 L 87.453125 282.257812 L 87.453125 288.835938 C 88.792969 290.054688 89.648438 291.820312 89.648438 293.769531 C 89.648438 294.5625 89.464844 295.414062 89.160156 296.207031 Z M 77.585938 293.710938 C 77.585938 296.695312 80.023438 299.128906 83.007812 299.128906 C 85.992188 299.128906 88.429688 296.695312 88.429688 293.710938 C 88.429688 290.722656 85.992188 288.289062 83.007812 288.289062 C 80.023438 288.289062 77.585938 290.664062 77.585938 293.710938 Z M 11.738281 293.710938 C 11.738281 296.695312 14.175781 299.128906 17.160156 299.128906 C 20.144531 299.128906 22.582031 296.695312 22.582031 293.710938 C 22.582031 290.722656 20.144531 288.289062 17.160156 288.289062 C 14.175781 288.289062 11.738281 290.664062 11.738281 293.710938 Z M 24.46875 278.90625 C 20.8125 278.90625 17.828125 281.890625 17.828125 285.546875 L 17.828125 287.007812 L 82.398438 287.007812 L 82.398438 285.546875 C 82.398438 281.890625 79.414062 278.90625 75.757812 278.90625 Z M 60.773438 277.6875 L 60.773438 243.699219 L 39.453125 243.699219 L 39.453125 277.628906 L 60.773438 277.628906 Z M 1.808594 235.171875 C 1.808594 239.25 5.097656 242.542969 9.179688 242.542969 L 86.234375 242.542969 L 86.234375 229.140625 L 47.800781 229.140625 C 41.707031 229.140625 35.980469 227.617188 30.988281 224.9375 L 1.871094 224.9375 L 1.871094 235.171875 Z M 1.808594 223.71875 L 28.855469 223.71875 C 18.5625 217.324219 11.675781 205.933594 11.675781 192.957031 C 11.675781 192.957031 11.675781 192.894531 11.675781 192.894531 C 11.675781 192.894531 11.675781 192.835938 11.675781 192.835938 L 32.144531 103.292969 L 14.234375 103.292969 C 7.351562 103.292969 1.75 108.894531 1.75 115.777344 L 1.75 223.71875 Z M 113.585938 3.820312 C 115.109375 3.820312 116.570312 5.035156 116.875 6.558594 C 117.058594 7.351562 116.875 8.082031 116.390625 8.691406 C 115.902344 9.238281 115.230469 9.542969 114.4375 9.542969 C 112.917969 9.542969 111.453125 8.328125 111.148438 6.804688 C 110.96875 6.011719 111.148438 5.28125 111.636719 4.671875 C 112.125 4.125 112.792969 3.820312 113.585938 3.820312 Z M 112.367188 6.558594 C 112.550781 7.535156 113.527344 8.328125 114.4375 8.328125 C 114.867188 8.328125 115.230469 8.203125 115.414062 7.898438 C 115.65625 7.59375 115.71875 7.230469 115.65625 6.804688 C 115.476562 5.828125 114.5 5.035156 113.585938 5.035156 C 113.160156 5.035156 112.792969 5.160156 112.613281 5.464844 C 112.367188 5.707031 112.308594 6.132812 112.367188 6.558594 Z M 106.703125 3.820312 C 108.226562 3.820312 109.6875 5.035156 109.992188 6.558594 C 110.175781 7.351562 109.992188 8.082031 109.503906 8.691406 C 109.019531 9.238281 108.347656 9.542969 107.554688 9.542969 C 106.035156 9.542969 104.570312 8.328125 104.265625 6.804688 C 104.085938 6.011719 104.265625 5.28125 104.753906 4.671875 C 105.242188 4.125 105.910156 3.820312 106.703125 3.820312 Z M 105.484375 6.558594 C 105.667969 7.535156 106.640625 8.328125 107.554688 8.328125 C 107.984375 8.328125 108.347656 8.203125 108.53125 7.898438 C 108.773438 7.59375 108.835938 7.230469 108.773438 6.804688 C 108.589844 5.828125 107.617188 5.035156 106.703125 5.035156 C 106.277344 5.035156 105.910156 5.160156 105.730469 5.464844 C 105.484375 5.707031 105.425781 6.132812 105.484375 6.558594 Z M 99.820312 3.820312 C 101.34375 3.820312 102.804688 5.035156 103.109375 6.558594 C 103.292969 7.351562 103.109375 8.082031 102.621094 8.691406 C 102.136719 9.238281 101.464844 9.542969 100.671875 9.542969 C 99.148438 9.542969 97.6875 8.328125 97.382812 6.804688 C 97.199219 6.011719 97.382812 5.28125 97.871094 4.671875 C 98.359375 4.125 99.027344 3.820312 99.820312 3.820312 Z M 98.601562 6.558594 C 98.785156 7.535156 99.757812 8.328125 100.671875 8.328125 C 101.097656 8.328125 101.464844 8.203125 101.648438 7.898438 C 101.890625 7.59375 101.953125 7.230469 101.890625 6.804688 C 101.707031 5.828125 100.734375 5.035156 99.820312 5.035156 C 99.394531 5.035156 99.027344 5.160156 98.84375 5.464844 C 98.601562 5.707031 98.480469 6.132812 98.601562 6.558594 Z M 79.046875 59.25 C 78.988281 59.25 78.925781 59.25 78.804688 59.191406 L 60.46875 52.0625 C 60.285156 52 60.105469 51.820312 60.105469 51.636719 L 59.128906 46.519531 C 59.070312 46.214844 59.191406 45.972656 59.496094 45.847656 L 75.089844 38.722656 C 75.273438 38.660156 75.453125 38.660156 75.636719 38.722656 C 75.820312 38.785156 75.941406 38.964844 75.941406 39.148438 L 77.097656 44.996094 C 77.160156 45.300781 76.976562 45.605469 76.734375 45.667969 L 67.71875 48.957031 L 78.195312 52.304688 C 78.378906 52.367188 78.5625 52.550781 78.621094 52.792969 L 79.777344 58.640625 C 79.839844 58.886719 79.71875 59.066406 79.597656 59.25 C 79.351562 59.25 79.171875 59.25 79.046875 59.25 Z M 77.402344 53.28125 L 65.648438 49.566406 C 65.464844 49.503906 65.28125 49.320312 65.222656 49.078125 L 65.222656 49.015625 C 65.160156 48.710938 65.34375 48.40625 65.585938 48.347656 L 75.699219 44.691406 L 74.84375 40.125 L 60.410156 46.761719 L 61.261719 51.089844 L 78.257812 57.726562 Z M 89.585938 61.320312 L 83.433594 61.320312 C 83.25 61.320312 83.070312 61.261719 83.007812 61.140625 C 82.886719 61.015625 82.824219 60.835938 82.886719 60.652344 L 86.296875 32.632812 C 86.359375 32.328125 86.601562 32.082031 86.90625 32.082031 L 93.058594 32.082031 C 93.242188 32.082031 93.425781 32.144531 93.484375 32.265625 C 93.605469 32.386719 93.667969 32.570312 93.605469 32.753906 L 90.195312 60.773438 C 90.132812 61.140625 89.890625 61.320312 89.585938 61.320312 Z M 87.332031 33.300781 L 84.042969 60.101562 L 88.976562 60.101562 L 92.207031 33.300781 Z M 117.730469 52.0625 L 102.136719 59.191406 C 102.074219 59.25 101.953125 59.25 101.890625 59.25 C 101.769531 59.25 101.707031 59.25 101.585938 59.191406 C 101.402344 59.128906 101.28125 58.945312 101.28125 58.761719 L 100.125 52.914062 C 100.0625 52.609375 100.246094 52.304688 100.488281 52.246094 L 109.503906 49.015625 L 99.027344 45.667969 C 98.84375 45.605469 98.664062 45.421875 98.601562 45.179688 L 97.445312 39.332031 C 97.382812 39.089844 97.503906 38.90625 97.628906 38.722656 C 97.808594 38.601562 98.054688 38.539062 98.234375 38.601562 L 116.570312 45.726562 C 116.753906 45.789062 116.9375 45.972656 116.9375 46.152344 L 117.910156 51.269531 C 118.15625 51.695312 117.972656 51.941406 117.730469 52.0625 Z M 115.960938 46.824219 L 98.96875 40.183594 L 99.820312 44.570312 L 111.578125 48.285156 C 111.757812 48.347656 111.941406 48.53125 112.003906 48.773438 L 112.003906 48.835938 C 112.0625 49.140625 111.882812 49.445312 111.636719 49.503906 L 101.527344 53.160156 L 102.4375 57.726562 L 116.875 51.089844 Z M 115.960938 46.824219 " fill-opacity="1" fill-rule="nonzero"/></g></g></g></g></svg>